<svg xmlns="http://www.w3.org/2000/svg" enable-background="new 0 0 512 512" viewBox="0 0 512 512"><path fill="#f3f7fa" d="M454.66,122.698v21.917c0,8.836-7.164,16-16,16H73.34c-8.836,0-16-7.164-16-16v-21.917
			c0-8.836,7.164-16,16-16h365.32C447.496,106.698,454.66,113.862,454.66,122.698z"/><path fill="#b5c1c6" d="M427.246,106.717H84.754c30.264-36.38,73.61-58.784,120.589-58.784h101.314
			C352.308,47.933,395.932,69.156,427.246,106.717z"/><path fill="#cce192" d="M423.194,160.616l-27.427,318.136c-1.361,15.79-14.576,27.914-30.424,27.914H146.659
			c-15.848,0-29.063-12.124-30.424-27.914L88.806,160.616H423.194z"/><path fill="#81889a" d="M438.659,101.364h-9.02c-31.941-37.226-76.403-58.602-122.499-58.752V20.601
				C307.141,9.242,297.898,0,286.537,0h-61.073c-11.362,0-20.604,9.242-20.604,20.602v22.012
				c-46.16,0.148-90.624,21.526-122.503,58.752h-9.016c-11.763,0-21.333,9.571-21.333,21.333v21.916
				c0,11.763,9.571,21.333,21.333,21.333h10.574l27.007,313.263C112.534,497.903,127.899,512,146.659,512h218.683
				c18.761,0,34.125-14.096,35.737-32.789l27.007-313.263h10.574c11.763,0,21.333-9.571,21.333-21.333v-21.916
				C459.992,110.935,450.422,101.364,438.659,101.364z M215.526,20.601c0-5.479,4.459-9.935,9.938-9.935h61.073
				c5.479,0,9.938,4.456,9.938,9.935v21.997h-80.948V20.601H215.526z M205.344,53.266c29.701,0,71.617,0,101.313,0
				c40.222,0,79.228,17.396,108.654,48.098H96.674C126.05,70.66,165.062,53.266,205.344,53.266z M390.453,478.294
				c-1.133,13.135-11.929,23.039-25.112,23.039H146.659c-13.182,0-23.979-9.904-25.112-23.039L94.62,165.948h322.76L390.453,478.294
				z M449.325,144.615c0,5.882-4.784,10.667-10.667,10.667c-221.86,0-136.728,0-365.318,0c-5.882,0-10.667-4.784-10.667-10.667
				v-21.916c0-5.882,4.784-10.667,10.667-10.667c0.549,0,389.758,0.006,365.318,0c5.882,0,10.667,4.784,10.667,10.667V144.615z"/><path fill="#81889a" d="M167.553 457.43c2.935-.24 5.12-2.815 4.88-5.75l-19.404-236.948c-.237-2.938-2.789-5.104-5.75-4.88-2.935.24-5.12 2.815-4.88 5.75l19.404 236.948C162.045 455.543 164.694 457.681 167.553 457.43zM231.703 451.969l-6.468-236.948c-.078-2.946-2.539-5.208-5.477-5.185-2.946.08-5.265 2.531-5.185 5.477l6.468 236.948C221.233 459.377 231.898 459.048 231.703 451.969zM290.958 452.261l6.468-236.948c.08-2.946-2.239-5.396-5.185-5.477-2.972-.154-5.399 2.237-5.477 5.185l-6.468 236.948C280.103 459.041 290.767 459.373 290.958 452.261zM344.447 457.43c2.858.251 5.507-1.886 5.75-4.88l19.404-236.948c.24-2.935-1.945-5.51-4.88-5.75-2.938-.232-5.513 1.942-5.75 4.88L339.567 451.68C339.329 454.614 341.513 457.19 344.447 457.43z"/></svg>